<?xml version="1.0" encoding="UTF-8" standalone="no"?>
<!-- Created with Inkscape (http://www.inkscape.org/) -->

<svg
   xmlns:dc="http://purl.org/dc/elements/1.1/"
   xmlns:cc="http://creativecommons.org/ns#"
   xmlns:rdf="http://www.w3.org/1999/02/22-rdf-syntax-ns#"
   xmlns:svg="http://www.w3.org/2000/svg"
   xmlns="http://www.w3.org/2000/svg"
   xmlns:sodipodi="http://sodipodi.sourceforge.net/DTD/sodipodi-0.dtd"
   xmlns:inkscape="http://www.inkscape.org/namespaces/inkscape"
   width="87.800323mm"
   height="31.69626mm"
   viewBox="0 0 87.80032 31.69626"
   version="1.1"
   id="svg5181"
   inkscape:version="0.92.4 (5da689c313, 2019-01-14)"
   sodipodi:docname="digitaldeveloper_logo.svg">
  <defs
     id="defs5175" />
  <sodipodi:namedview
     id="base"
     pagecolor="#ffffff"
     bordercolor="#666666"
     borderopacity="1.0"
     inkscape:pageopacity="0.0"
     inkscape:pageshadow="2"
     inkscape:zoom="0.98994949"
     inkscape:cx="-261.84073"
     inkscape:cy="31.086316"
     inkscape:document-units="mm"
     inkscape:current-layer="layer1"
     showgrid="false"
     fit-margin-top="0"
     fit-margin-left="0"
     fit-margin-bottom="0"
     fit-margin-right="0"
     inkscape:window-width="1920"
     inkscape:window-height="1027"
     inkscape:window-x="-8"
     inkscape:window-y="-8"
     inkscape:window-maximized="1"
     inkscape:snap-object-midpoints="true"
     inkscape:snap-midpoints="true"
     inkscape:snap-bbox="true"
     inkscape:snap-bbox-edge-midpoints="false"
     inkscape:bbox-nodes="true"
     inkscape:bbox-paths="true"
     inkscape:snap-bbox-midpoints="false"
     showguides="true"
     inkscape:guide-bbox="true"
     inkscape:snap-to-guides="true" />
  <metadata
     id="metadata5178">
    <rdf:RDF>
      <cc:Work
         rdf:about="">
        <dc:format>image/svg+xml</dc:format>
        <dc:type
           rdf:resource="http://purl.org/dc/dcmitype/StillImage" />
        <dc:title></dc:title>
      </cc:Work>
    </rdf:RDF>
  </metadata>
  <g
     inkscape:label="Layer 1"
     inkscape:groupmode="layer"
     id="layer1"
     transform="translate(-76.740265,-123.56069)">
    <g
       transform="translate(42.777338,31.863653)"
       aria-label="&lt; &gt;"
       style="font-style:normal;font-weight:normal;font-size:10.58333302px;line-height:13.22916698px;font-family:sans-serif;letter-spacing:0px;word-spacing:0px;display:inline;opacity:1;fill:#000000;fill-opacity:1;stroke:none;stroke-width:0.26458332"
       id="text4528-68">
      <path
         d="M 56.026008,120.28582 52.946781,123.3933 33.962927,107.54517 52.946781,91.697039 56.026008,94.832765 40.629876,107.48867 Z"
         style="font-style:normal;font-variant:normal;font-weight:normal;font-stretch:normal;font-size:57.85555649px;line-height:13.22916698px;font-family:Consolas;-inkscape-font-specification:Consolas;stroke-width:0.26458332"
         id="path10516-8"
         inkscape:connector-curvature="0" />
      <path
         d="m 99.728422,94.832765 3.050978,-3.135726 18.98385,15.848131 -18.98385,15.84813 -3.050978,-3.10748 15.396128,-12.68415 z"
         style="font-style:normal;font-variant:normal;font-weight:normal;font-stretch:normal;font-size:57.85555649px;line-height:13.22916698px;font-family:Consolas;-inkscape-font-specification:Consolas;stroke-width:0.26458332"
         id="path10518-30"
         inkscape:connector-curvature="0" />
    </g>
    <g
       style="display:inline"
       transform="matrix(0.10008613,0,0,-0.10008613,96.853084,140.29386)"
       id="g7781-5-2">
      <path
         inkscape:connector-curvature="0"
         id="path7783-9-7"
         style="fill:#000000;fill-opacity:1;fill-rule:nonzero;stroke:none"
         d="m 0,0 -17.604,-0.009 -0.009,17.604 17.604,0.009 z" />
    </g>
    <g
       style="display:inline"
       transform="matrix(0.10008613,0,0,-0.10008613,103.9007,140.29023)"
       id="g7785-1-6">
      <path
         inkscape:connector-curvature="0"
         id="path7787-5-6"
         style="fill:#000000;fill-opacity:1;fill-rule:nonzero;stroke:none"
         d="m 0,0 -17.604,-0.009 -0.009,17.604 17.604,0.009 z" />
    </g>
    <g
       style="display:inline"
       transform="matrix(0.10008613,0,0,-0.10008613,110.94833,140.2866)"
       id="g7789-0-2">
      <path
         inkscape:connector-curvature="0"
         id="path7791-5-8"
         style="fill:#000000;fill-opacity:1;fill-rule:nonzero;stroke:none"
         d="m 0,0 -17.604,-0.009 -0.009,17.604 17.604,0.009 z" />
    </g>
    <g
       style="display:inline"
       transform="matrix(0.10008613,0,0,-0.10008613,103.8989,136.76642)"
       id="g7793-8-9">
      <path
         inkscape:connector-curvature="0"
         id="path7795-3-0"
         style="fill:#000000;fill-opacity:1;fill-rule:nonzero;stroke:none"
         d="m 0,0 -17.604,-0.009 -0.009,17.604 17.604,0.009 z" />
    </g>
    <g
       style="display:inline"
       transform="matrix(0.10008613,0,0,-0.10008613,103.90253,143.81404)"
       id="g7797-6-3">
      <path
         inkscape:connector-curvature="0"
         id="path7799-1-9"
         style="fill:#000000;fill-opacity:1;fill-rule:nonzero;stroke:none"
         d="m 0,0 -17.604,-0.009 -0.009,17.604 17.604,0.009 z" />
    </g>
    <g
       style="display:inline"
       transform="matrix(0.10008613,0,0,-0.10008613,103.90433,147.33786)"
       id="g7801-0-1">
      <path
         inkscape:connector-curvature="0"
         id="path7803-4-1"
         style="fill:#000000;fill-opacity:1;fill-rule:nonzero;stroke:none"
         d="m 0,0 -17.604,-0.009 -0.009,17.604 17.604,0.009 z" />
    </g>
    <g
       style="display:inline"
       transform="matrix(0.10008613,0,0,-0.10008613,103.89708,133.2426)"
       id="g7805-5-6">
      <path
         inkscape:connector-curvature="0"
         id="path7807-3-6"
         style="fill:#000000;fill-opacity:1;fill-rule:nonzero;stroke:none"
         d="m 0,0 -17.604,-0.009 -0.009,17.604 17.604,0.009 z" />
    </g>
    <g
       style="display:inline"
       transform="matrix(0.10008613,0,0,-0.10008613,100.3769,140.29205)"
       id="g7809-0-0">
      <path
         inkscape:connector-curvature="0"
         id="path7811-9-0"
         style="fill:#000000;fill-opacity:1;fill-rule:nonzero;stroke:none"
         d="m 0,0 -17.604,-0.009 -0.009,17.604 17.604,0.009 z" />
    </g>
    <g
       style="display:inline"
       transform="matrix(0.10008613,0,0,-0.10008613,100.37508,136.76824)"
       id="g7813-17-3">
      <path
         inkscape:connector-curvature="0"
         id="path7815-9-6"
         style="fill:#000000;fill-opacity:1;fill-rule:nonzero;stroke:none"
         d="m 0,0 -17.604,-0.009 -0.009,17.604 17.604,0.009 z" />
    </g>
    <g
       style="display:inline"
       transform="matrix(0.10008613,0,0,-0.10008613,100.3787,143.81587)"
       id="g7817-7-6">
      <path
         inkscape:connector-curvature="0"
         id="path7819-9-6"
         style="fill:#000000;fill-opacity:1;fill-rule:nonzero;stroke:none"
         d="m 0,0 -17.604,-0.009 -0.009,17.604 17.604,0.009 z" />
    </g>
    <g
       style="display:inline"
       transform="matrix(0.10008613,0,0,-0.10008613,144.42775,140.29386)"
       id="g7821-5-9">
      <path
         inkscape:connector-curvature="0"
         id="path7823-0-2"
         style="fill:#000000;fill-opacity:1;fill-rule:nonzero;stroke:none"
         d="M 0,0 17.604,-0.009 17.613,17.595 0.009,17.604 Z" />
    </g>
    <g
       style="display:inline"
       transform="matrix(0.10008613,0,0,-0.10008613,137.38007,140.29023)"
       id="g7825-5-2">
      <path
         inkscape:connector-curvature="0"
         id="path7827-9-4"
         style="fill:#000000;fill-opacity:1;fill-rule:nonzero;stroke:none"
         d="M 0,0 17.604,-0.009 17.613,17.595 0.009,17.604 Z" />
    </g>
    <g
       style="display:inline"
       transform="matrix(0.10008613,0,0,-0.10008613,137.3819,136.76642)"
       id="g7829-7-4">
      <path
         inkscape:connector-curvature="0"
         id="path7831-8-4"
         style="fill:#000000;fill-opacity:1;fill-rule:nonzero;stroke:none"
         d="M 0,0 17.604,-0.009 17.613,17.595 0.009,17.604 Z" />
    </g>
    <g
       style="display:inline"
       transform="matrix(0.10008613,0,0,-0.10008613,137.37827,143.81404)"
       id="g7833-0-3">
      <path
         inkscape:connector-curvature="0"
         id="path7835-8-4"
         style="fill:#000000;fill-opacity:1;fill-rule:nonzero;stroke:none"
         d="M 0,0 17.604,-0.009 17.613,17.595 0.009,17.604 Z" />
    </g>
    <g
       style="display:inline"
       transform="matrix(0.10008613,0,0,-0.10008613,137.37645,147.33786)"
       id="g7837-1-1">
      <path
         inkscape:connector-curvature="0"
         id="path7839-5-0"
         style="fill:#000000;fill-opacity:1;fill-rule:nonzero;stroke:none"
         d="M 0,0 17.604,-0.009 17.613,17.595 0.009,17.604 Z" />
    </g>
    <g
       style="display:inline"
       transform="matrix(0.10008613,0,0,-0.10008613,137.3837,133.2426)"
       id="g7841-80-0">
      <path
         inkscape:connector-curvature="0"
         id="path7843-5-8"
         style="fill:#000000;fill-opacity:1;fill-rule:nonzero;stroke:none"
         d="M 0,0 17.604,-0.009 17.613,17.595 0.009,17.604 Z" />
    </g>
    <g
       style="display:inline"
       transform="matrix(0.10008613,0,0,-0.10008613,140.9039,140.29205)"
       id="g7845-2-8">
      <path
         inkscape:connector-curvature="0"
         id="path7847-4-5"
         style="fill:#000000;fill-opacity:1;fill-rule:nonzero;stroke:none"
         d="M 0,0 17.604,-0.009 17.613,17.595 0.009,17.604 Z" />
    </g>
    <g
       style="display:inline"
       transform="matrix(0.10008613,0,0,-0.10008613,140.90573,136.76824)"
       id="g7849-7-0">
      <path
         inkscape:connector-curvature="0"
         id="path7851-0-0"
         style="fill:#000000;fill-opacity:1;fill-rule:nonzero;stroke:none"
         d="M 0,0 17.604,-0.009 17.613,17.595 0.009,17.604 Z" />
    </g>
    <g
       style="display:inline"
       transform="matrix(0.10008613,0,0,-0.10008613,140.9021,143.81587)"
       id="g7853-5-6">
      <path
         inkscape:connector-curvature="0"
         id="path7855-3-8"
         style="fill:#000000;fill-opacity:1;fill-rule:nonzero;stroke:none"
         d="M 0,0 17.604,-0.009 17.613,17.595 0.009,17.604 Z" />
    </g>
    <g
       style="display:inline"
       transform="matrix(0.10008613,0,0,-0.10008613,107.42453,140.28841)"
       id="g7857-8-6">
      <path
         inkscape:connector-curvature="0"
         id="path7859-5-2"
         style="fill:#000000;fill-opacity:1;fill-rule:nonzero;stroke:none"
         d="m 0,0 -17.604,-0.009 -0.009,17.604 17.604,0.009 z" />
    </g>
    <g
       style="display:inline"
       transform="matrix(0.10008613,0,0,-0.10008613,107.42271,136.76461)"
       id="g7861-0-3">
      <path
         inkscape:connector-curvature="0"
         id="path7863-8-1"
         style="fill:#000000;fill-opacity:1;fill-rule:nonzero;stroke:none"
         d="m 0,0 -17.604,-0.009 -0.009,17.604 17.604,0.009 z" />
    </g>
    <g
       style="display:inline"
       transform="matrix(0.10008613,0,0,-0.10008613,107.42633,143.81224)"
       id="g7865-63-5">
      <path
         inkscape:connector-curvature="0"
         id="path7867-8-0"
         style="fill:#000000;fill-opacity:1;fill-rule:nonzero;stroke:none"
         d="m 0,0 -17.604,-0.009 -0.009,17.604 17.604,0.009 z" />
    </g>
    <g
       style="display:inline"
       transform="matrix(0.10008613,0,0,-0.10008613,110.94653,136.7628)"
       id="g7869-2-10">
      <path
         inkscape:connector-curvature="0"
         id="path7871-5-3"
         style="fill:#000000;fill-opacity:1;fill-rule:nonzero;stroke:none"
         d="m 0,0 -17.604,-0.009 -0.009,17.604 17.604,0.009 z" />
    </g>
    <g
       style="display:inline"
       transform="matrix(0.10008613,0,0,-0.10008613,110.95016,143.81041)"
       id="g7873-24-9">
      <path
         inkscape:connector-curvature="0"
         id="path7875-0-5"
         style="fill:#000000;fill-opacity:1;fill-rule:nonzero;stroke:none"
         d="m 0,0 -17.604,-0.009 -0.009,17.604 17.604,0.009 z" />
    </g>
    <path
       inkscape:connector-curvature="0"
       id="path7877-9-0"
       style="display:inline;fill:#000000;fill-opacity:1;fill-rule:nonzero;stroke:none;stroke-width:0.10008614"
       d="m 116.23363,140.28978 h 1.76192 v -1.76191 h -1.76192 z" />
    <path
       inkscape:connector-curvature="0"
       id="path7879-4-5"
       style="display:inline;fill:#000000;fill-opacity:1;fill-rule:nonzero;stroke:none;stroke-width:0.10008614"
       d="m 116.23363,136.76594 h 1.76192 v -1.7619 h -1.76192 z" />
    <path
       inkscape:connector-curvature="0"
       id="path7881-2-3"
       style="display:inline;fill:#000000;fill-opacity:1;fill-rule:nonzero;stroke:none;stroke-width:0.10008614"
       d="m 116.23363,143.8136 h 1.76192 v -1.76191 h -1.76192 z" />
    <path
       inkscape:connector-curvature="0"
       id="path7883-1-2"
       style="display:inline;fill:#000000;fill-opacity:1;fill-rule:nonzero;stroke:none;stroke-width:0.10008614"
       d="m 116.23363,147.33744 h 1.76192 v -1.76191 h -1.76192 z" />
    <path
       inkscape:connector-curvature="0"
       id="path7885-2-66"
       style="display:inline;fill:#000000;fill-opacity:1;fill-rule:nonzero;stroke:none;stroke-width:0.10008614"
       d="m 116.23363,133.24212 h 1.76192 v -1.76193 h -1.76192 z" />
    <path
       inkscape:connector-curvature="0"
       id="path7887-6-7"
       style="display:inline;fill:#000000;fill-opacity:1;fill-rule:nonzero;stroke:none;stroke-width:0.10008614"
       d="m 133.85588,140.28978 h 1.76194 v -1.76191 h -1.76194 z" />
    <path
       inkscape:connector-curvature="0"
       id="path7889-06-9"
       style="display:inline;fill:#000000;fill-opacity:1;fill-rule:nonzero;stroke:none;stroke-width:0.10008614"
       d="m 133.85588,136.76594 h 1.76194 v -1.7619 h -1.76194 z" />
    <path
       inkscape:connector-curvature="0"
       id="path7891-5-70"
       style="display:inline;fill:#000000;fill-opacity:1;fill-rule:nonzero;stroke:none;stroke-width:0.10008614"
       d="m 133.85588,143.8136 h 1.76194 v -1.76191 h -1.76194 z" />
    <path
       inkscape:connector-curvature="0"
       id="path7893-9-1"
       style="display:inline;fill:#000000;fill-opacity:1;fill-rule:nonzero;stroke:none;stroke-width:0.10008614"
       d="m 133.85588,147.33744 h 1.76194 v -1.76191 h -1.76194 z" />
    <path
       inkscape:connector-curvature="0"
       id="path7895-7-5"
       style="display:inline;fill:#000000;fill-opacity:1;fill-rule:nonzero;stroke:none;stroke-width:0.10008614"
       d="m 133.85588,133.24212 h 1.76194 v -1.76193 h -1.76194 z" />
    <path
       inkscape:connector-curvature="0"
       id="path7897-4-1"
       style="display:inline;fill:#000000;fill-opacity:1;fill-rule:nonzero;stroke:none;stroke-width:0.10008614"
       d="m 119.75747,140.28978 h 1.76191 v -1.76191 h -1.76191 z" />
    <path
       inkscape:connector-curvature="0"
       id="path7899-0-86"
       style="display:inline;fill:#000000;fill-opacity:1;fill-rule:nonzero;stroke:none;stroke-width:0.10008614"
       d="m 119.75747,136.76594 h 1.76191 v -1.7619 h -1.76191 z" />
    <path
       inkscape:connector-curvature="0"
       id="path7901-6-96"
       style="display:inline;fill:#000000;fill-opacity:1;fill-rule:nonzero;stroke:none;stroke-width:0.10008614"
       d="m 119.75747,143.8136 h 1.76191 v -1.76191 h -1.76191 z" />
    <g
       style="display:inline"
       transform="matrix(0.10008613,0,0,-0.10008613,112.71024,140.28569)"
       id="g7903-4-9">
      <path
         inkscape:connector-curvature="0"
         id="path7905-87-98"
         style="fill:#000000;fill-opacity:1;fill-rule:nonzero;stroke:none"
         d="M 0,0 17.604,0.009 17.595,17.613 -0.009,17.604 Z" />
    </g>
    <g
       style="display:inline"
       transform="matrix(0.10008613,0,0,-0.10008613,112.71387,147.33332)"
       id="g7907-9-3">
      <path
         inkscape:connector-curvature="0"
         id="path7909-3-5"
         style="fill:#000000;fill-opacity:1;fill-rule:nonzero;stroke:none"
         d="M 0,0 17.604,0.009 17.595,17.613 -0.009,17.604 Z" />
    </g>
    <g
       style="display:inline"
       transform="matrix(0.10008613,0,0,-0.10008613,112.71569,150.85713)"
       id="g7911-9-1">
      <path
         inkscape:connector-curvature="0"
         id="path7913-8-9"
         style="fill:#000000;fill-opacity:1;fill-rule:nonzero;stroke:none"
         d="M 0,0 17.604,0.009 17.595,17.613 -0.009,17.604 Z" />
    </g>
    <g
       style="display:inline"
       transform="matrix(0.10008613,0,0,-0.10008613,112.70842,136.76189)"
       id="g7915-4-1">
      <path
         inkscape:connector-curvature="0"
         id="path7917-0-2"
         style="fill:#000000;fill-opacity:1;fill-rule:nonzero;stroke:none"
         d="M 0,0 17.604,0.009 17.595,17.613 -0.009,17.604 Z" />
    </g>
    <g
       style="display:inline"
       transform="matrix(0.10008613,0,0,-0.10008613,112.70479,129.71426)"
       id="g7919-3-0">
      <path
         inkscape:connector-curvature="0"
         id="path7921-1-8"
         style="fill:#000000;fill-opacity:1;fill-rule:nonzero;stroke:none"
         d="M 0,0 17.604,0.009 17.595,17.613 -0.009,17.604 Z" />
    </g>
    <g
       style="display:inline"
       transform="matrix(0.10008613,0,0,-0.10008613,112.70662,133.23807)"
       id="g7923-1-3">
      <path
         inkscape:connector-curvature="0"
         id="path7925-1-7"
         style="fill:#000000;fill-opacity:1;fill-rule:nonzero;stroke:none"
         d="M 0,0 17.604,0.009 17.595,17.613 -0.009,17.604 Z" />
    </g>
    <g
       style="display:inline"
       transform="matrix(0.10008613,0,0,-0.10008613,112.71204,143.8095)"
       id="g7927-2-3">
      <path
         inkscape:connector-curvature="0"
         id="path7929-8-1"
         style="fill:#000000;fill-opacity:1;fill-rule:nonzero;stroke:none"
         d="M 0,0 17.604,0.009 17.595,17.613 -0.009,17.604 Z" />
    </g>
    <path
       inkscape:connector-curvature="0"
       id="path7931-5-0"
       style="display:inline;fill:#000000;fill-opacity:1;fill-rule:nonzero;stroke:none;stroke-width:0.10008614"
       d="m 123.2812,140.28978 h 1.76192 v -1.76191 h -1.76192 z" />
    <path
       inkscape:connector-curvature="0"
       id="path7933-0-3"
       style="display:inline;fill:#000000;fill-opacity:1;fill-rule:nonzero;stroke:none;stroke-width:0.10008614"
       d="m 123.2812,147.33744 h 1.76192 v -1.76191 h -1.76192 z" />
    <path
       inkscape:connector-curvature="0"
       id="path7935-31-0"
       style="display:inline;fill:#000000;fill-opacity:1;fill-rule:nonzero;stroke:none;stroke-width:0.10008614"
       d="m 123.2812,136.76594 h 1.76192 v -1.7619 h -1.76192 z" />
    <path
       inkscape:connector-curvature="0"
       id="path7937-2-4"
       style="display:inline;fill:#000000;fill-opacity:1;fill-rule:nonzero;stroke:none;stroke-width:0.10008614"
       d="m 123.2812,133.24212 h 1.76192 v -1.76193 h -1.76192 z" />
    <path
       inkscape:connector-curvature="0"
       id="path7939-1-8"
       style="display:inline;fill:#000000;fill-opacity:1;fill-rule:nonzero;stroke:none;stroke-width:0.10008614"
       d="m 123.2812,143.8136 h 1.76192 v -1.76191 h -1.76192 z" />
    <path
       inkscape:connector-curvature="0"
       id="path7941-0-7"
       style="display:inline;fill:#000000;fill-opacity:1;fill-rule:nonzero;stroke:none;stroke-width:0.10008614"
       d="m 126.80503,140.28978 h 1.76191 v -1.76191 h -1.76191 z" />
    <path
       inkscape:connector-curvature="0"
       id="path7943-1-0"
       style="display:inline;fill:#000000;fill-opacity:1;fill-rule:nonzero;stroke:none;stroke-width:0.10008614"
       d="m 126.80503,147.33744 h 1.76191 v -1.76191 h -1.76191 z" />
    <path
       inkscape:connector-curvature="0"
       id="path7945-43-9"
       style="display:inline;fill:#000000;fill-opacity:1;fill-rule:nonzero;stroke:none;stroke-width:0.10008614"
       d="m 126.80503,150.86117 h 1.76191 v -1.76191 h -1.76191 z" />
    <path
       inkscape:connector-curvature="0"
       id="path7947-9-3"
       style="display:inline;fill:#000000;fill-opacity:1;fill-rule:nonzero;stroke:none;stroke-width:0.10008614"
       d="m 126.80503,136.76594 h 1.76191 v -1.7619 h -1.76191 z" />
    <path
       inkscape:connector-curvature="0"
       id="path7949-6-7"
       style="display:inline;fill:#000000;fill-opacity:1;fill-rule:nonzero;stroke:none;stroke-width:0.10008614"
       d="m 126.80503,129.71838 h 1.76191 v -1.76192 h -1.76191 z" />
    <path
       inkscape:connector-curvature="0"
       id="path7951-81-9"
       style="display:inline;fill:#000000;fill-opacity:1;fill-rule:nonzero;stroke:none;stroke-width:0.10008614"
       d="m 126.80503,133.24212 h 1.76191 v -1.76193 h -1.76191 z" />
    <path
       inkscape:connector-curvature="0"
       id="path7953-9-0"
       style="display:inline;fill:#000000;fill-opacity:1;fill-rule:nonzero;stroke:none;stroke-width:0.10008614"
       d="m 126.80503,143.8136 h 1.76191 v -1.76191 h -1.76191 z" />
    <path
       inkscape:connector-curvature="0"
       id="path7955-1-8"
       style="display:inline;fill:#000000;fill-opacity:1;fill-rule:nonzero;stroke:none;stroke-width:0.10008614"
       d="m 130.32886,140.28978 h 1.76191 v -1.76191 h -1.76191 z" />
    <path
       inkscape:connector-curvature="0"
       id="path7957-7-1"
       style="display:inline;fill:#000000;fill-opacity:1;fill-rule:nonzero;stroke:none;stroke-width:0.10008614"
       d="m 130.32886,147.33744 h 1.76191 v -1.76191 h -1.76191 z" />
    <path
       inkscape:connector-curvature="0"
       id="path7959-3-6"
       style="display:inline;fill:#000000;fill-opacity:1;fill-rule:nonzero;stroke:none;stroke-width:0.10008614"
       d="m 130.32886,154.385 h 1.76191 v -1.7619 h -1.76191 z" />
    <path
       inkscape:connector-curvature="0"
       id="path7961-5-3"
       style="display:inline;fill:#000000;fill-opacity:1;fill-rule:nonzero;stroke:none;stroke-width:0.10008614"
       d="m 130.32886,150.86117 h 1.76191 v -1.76191 h -1.76191 z" />
    <path
       inkscape:connector-curvature="0"
       id="path7963-3-0"
       style="display:inline;fill:#000000;fill-opacity:1;fill-rule:nonzero;stroke:none;stroke-width:0.10008614"
       d="m 130.32886,136.76594 h 1.76191 v -1.7619 h -1.76191 z" />
    <path
       inkscape:connector-curvature="0"
       id="path7965-4-4"
       style="display:inline;fill:#000000;fill-opacity:1;fill-rule:nonzero;stroke:none;stroke-width:0.10008614"
       d="m 130.32886,129.71838 h 1.76191 v -1.76192 h -1.76191 z" />
    <path
       inkscape:connector-curvature="0"
       id="path7967-96-4"
       style="display:inline;fill:#000000;fill-opacity:1;fill-rule:nonzero;stroke:none;stroke-width:0.10008614"
       d="m 130.32886,133.24212 h 1.76191 v -1.76193 h -1.76191 z" />
    <path
       inkscape:connector-curvature="0"
       id="path7969-9-37"
       style="display:inline;fill:#000000;fill-opacity:1;fill-rule:nonzero;stroke:none;stroke-width:0.10008614"
       d="m 130.32886,126.19455 h 1.76191 v -1.76192 h -1.76191 z" />
    <path
       inkscape:connector-curvature="0"
       id="path7971-7-5"
       style="display:inline;fill:#000000;fill-opacity:1;fill-rule:nonzero;stroke:none;stroke-width:0.10008614"
       d="m 130.32886,143.8136 h 1.76191 v -1.76191 h -1.76191 z" />
  </g>
</svg>
